/* XPM */
static char * endofgame_xpm[] = {
"64 64 153 2",
"  	c #DEC87E",
". 	c #F1DA84",
"+ 	c #F8F273",
"@ 	c #FEFA9D",
"# 	c #A69C47",
"$ 	c #3D0000",
"% 	c #857836",
"& 	c #BAB152",
"* 	c #E5DF69",
"= 	c #91853C",
"- 	c #6E5C28",
"; 	c #8D7746",
"> 	c #6B522F",
", 	c #E7E06A",
"' 	c #C1BA74",
") 	c #D3CC60",
"! 	c #E1CA7A",
"~ 	c #7A6B2F",
"{ 	c #F7F173",
"] 	c #B7A261",
"^ 	c #A18C53",
"/ 	c #5E491E",
"( 	c #CDC55D",
"_ 	c #A69E61",
": 	c #502E18",
"< 	c #7C653A",
"[ 	c #BBA663",
"} 	c #BAA567",
"| 	c #7D663E",
"1 	c #51301A",
"2 	c #4F2E19",
"3 	c #735C37",
"4 	c #BCA764",
"5 	c #EED782",
"6 	c #EFD883",
"7 	c #AD985A",
"8 	c #5F4426",
"9 	c #593B20",
"0 	c #8A7444",
"a 	c #C1AB66",
"b 	c #6C542F",
"c 	c #D7C174",
"d 	c #56371E",
"e 	c #BDA764",
"f 	c #836D42",
"g 	c #654B2C",
"h 	c #A59059",
"i 	c #604528",
"j 	c #CCB773",
"k 	c #D6C079",
"l 	c #8B7545",
"m 	c #F0D984",
"n 	c #AB9559",
"o 	c #DAC476",
"p 	c #E5CF7D",
"q 	c #7B643A",
"r 	c #EBD480",
"s 	c #73632B",
"t 	c #C5BD59",
"u 	c #DFC879",
"v 	c #907A48",
"w 	c #7F693D",
"x 	c #D4BE78",
"y 	c #421408",
"z 	c #AB965D",
"A 	c #CDB76E",
"B 	c #D1BC71",
"C 	c #E8D17F",
"D 	c #451B0C",
"E 	c #A89357",
"F 	c #C9B36B",
"G 	c #ECD581",
"H 	c #CAB46C",
"I 	c #655222",
"J 	c #AF9A5C",
"K 	c #8E7947",
"L 	c #5D4123",
"M 	c #411106",
"N 	c #5B3F22",
"O 	c #CEB86F",
"P 	c #BEA865",
"Q 	c #C5AF6E",
"R 	c #BFA965",
"S 	c #DCC577",
"T 	c #7D663B",
"U 	c #5E4225",
"V 	c #E6CF7D",
"W 	c #9A854E",
"X 	c #EAD380",
"Y 	c #8F7947",
"Z 	c #57391F",
"` 	c #B5A064",
" .	c #CAB571",
"..	c #D1BB71",
"+.	c #CFB96F",
"@.	c #69502D",
"#.	c #431609",
"$.	c #95804F",
"%.	c #461F09",
"&.	c #ADA44B",
"*.	c #B9A466",
"=.	c #A9945C",
"-.	c #DAC47B",
";.	c #877142",
">.	c #E3CD7C",
",.	c #471F0E",
"'.	c #A48E54",
").	c #EBD581",
"!.	c #B6A160",
"~.	c #53341D",
"{.	c #A58F59",
"].	c #451C0D",
"^.	c #BAA467",
"/.	c #D1BC76",
"(.	c #7E673F",
"_.	c #D9C37B",
":.	c #AEA54C",
"<.	c #5A431B",
"[.	c #E1DA67",
"}.	c #ECE66D",
"|.	c #735B37",
"1.	c #C7B16F",
"2.	c #786038",
"3.	c #492311",
"4.	c #644A29",
"5.	c #A08A56",
"6.	c #7F6940",
"7.	c #52321C",
"8.	c #4A2513",
"9.	c #6C5432",
"0.	c #968150",
"a.	c #DFD866",
"b.	c #F5EF72",
"c.	c #B1A84E",
"d.	c #573E18",
"e.	c #8A7D38",
"f.	c #B5A05F",
"g.	c #E4CD7C",
"h.	c #674D2B",
"i.	c #A7925B",
"j.	c #D2BC76",
"k.	c #6E5633",
"l.	c #8D7749",
"m.	c #867045",
"n.	c #A18C56",
"o.	c #EBE46C",
"p.	c #ABA14A",
"q.	c #BBB353",
"r.	c #695625",
"s.	c #A59B47",
"t.	c #604B1F",
"u.	c #3F0B02",
"v.	c #B29678",
"      . . . . .           + + + + + + +                     . . . . .     . .                 + + + + + + + + + + + + + + + + + ",
"                      + + + + + + + + + + + + +                                         + + + + + + + + + + + + + + + + + +     ",
"+           . . . + + + + + + + + + + + + + + + + + + +                                 + + + + + + + + + + + + + + + + + + + + ",
"+ + + . . . . . . . . + + + + + + + + @ @ @ @ @ + + + + + + + +                   + + + + + + + + + + + + @ @ @ @ @ @ @ + + + + ",
"+ + . . . . . . . . . + + + + + @ @ @ @ @ @ @ @ @ + + + + + + + + + + + + + + + + + + + + + + + + + + @ @ @ @ @ @ @ @ @ @ @ + + ",
". . . . . .         . . + + + . . . . . . . . . @ + + + + + + + + + + + + + + + + + + + + + + + + + @ @ @ @ . . . . . . . . + . ",
". . . .               . . . . . . . . . . . . . . . . + + + + + + + + + + + + + + + + + + + + + + + . . . . . . . . . . . . . . ",
"  . . . . .           . . . . . . . . . . . . . . . . . . . + + + + + + + + + + + + + + + + + + . . . . . . . . . . . . . . .   ",
"    . .           . . . . . . . . . . . . . . . . . . . . . . + + + + + + + + + + + + + + . . . . . . . . . . . . . . . . . .   ",
". .             . . . . . . . . . . . . . . . . . . . . . . . . + + + . . . + + + + + . . + + + . . . . . . . . . . . . . . . . ",
".               . .       . . . . . . . . . . . . . . . . + + + + + . . . . . . . . . . + + + . . . . . . . . . . . . . . . . . ",
"                . .         . . . . . . . . . . . . . . . . + + + + + + . . . . . . . . . . . . . . . . . . . . . . . . . .     ",
"  + +             . .       . . . . . . . . . . . . . . . . . . . . . . . . . . . . . . . . . . .               . . . . .       ",
"+ + + + + +         . . . . . . . . . . . . . . .       . . . . . . . . . . . . . . . . . .                   + + + + + + + + + ",
"+ + + + + + +           . . . . . .                             . . . . . . . . . . .                 + + + + + + + + + + + + + ",
"+ + + + + + + + + + + + + +                                             . . .                   + + + + + + + + + + + + + + + + ",
"+ + + + + + + + + + + + + + +               + + + + + + +                             + + + + + + + + + + + + + + + + + + + + + ",
"+ + + + + + + + + + + + + + + + + + + + + + + + + + + + + + + + + +       . . . . . . + + + + + + + + + + + + + + + + @ @ @ @ @ ",
"@ @ @ + + + + # $ $ % + + + & $ $ * + + + + + + + + + + + + = $ - + + ; $ > . . . . . . . + + + + + + + + + + , $ $ ' @ @ @ @ @ ",
". @ @ + + + + # $ $ $ ) + + & $ $ * + + + + + @ @ @ @ @ + + = $ - + . ; $ > . . . . . . . . . + + . . . . . . ! $ $ ' @ . . . . ",
". . . . . . + # $ $ $ ~ { + & $ $ * + + + @ @ @ @ @ @ @ @ @ + + . . . ; $ > . . . . . . . . . . . . . . . . . ! $ $ ] . . . . . ",
". . . . . . . ^ $ $ / $ ( + & $ $ * + @ _ $ $ $ : < [ . . . ; $ > . . ; $ > . .   } | 1 2 3 4 5 . . 6 7 8 9 0 a $ $ ] . . . . . ",
". . . . . . + # $ $ 4 $ b 6 & $ $ * @ @ @ @ . 6 c d $ e . . ; $ > . . f $ g     h $ i j k | $ l m . n $ 9 o p q $ $ ] . . . . . ",
". . . . . + + # $ $ r s $ t & $ $ u . . . . . . . v $ w . . ; $ g     f $ g   x y $ z     A $ $ B C D $ E . . F $ $ ] . . . . . ",
". . . . . . . ^ $ $ G H $ I J $ $ u . . c K L M $ $ $ N . . ; $ >     f $ g   O $ $ $ $ $ $ $ $ P Q $ $ R . . S $ $ ] . . . . . ",
". . . . . . . ^ $ $ G . T $ U $ $ u . V : $ W X . Y $ Z . . ; $ > . . ; $ g . O $ $ `   . . .     Q $ $ R      .$ $ ] . . . . . ",
". . . . . . . ^ $ $ G . ..$ $ $ $ u . +.$ $ O . m @.$ Z . . ; $ > . . ; $ g . V #.$ $.            k %.$ &.+   *.$ $ =.. . . . . ",
"    + +       $.$ $ -.  . ;.$ $ $ u . >.,.$ '.).!.$ $ ~.    ; $ > . . ; $ g     {.$ ].^.-./.*.(._.+ :.$ <.[.}.|.$ $ =.    . .   ",
"  + + + +     $.$ $ -.    1.$ $ $ u . . O 2.3.4.5.f $ ~.    f $ > .   f $ g       } 6.7.8.9.0.a.+ + b.c./ d.e.t $ $ =.          ",
"+ + + + + + + + + +           . . . . . . . .                                             + + + + + + + + + + + + + + + +       ",
"+ + + + + + + + + + + +           . . . .           + + + + +                     + + + + + + + + + + + + + + + + + + + + + + + ",
"+ + + + + + + + + + + + + +             + + + + + + + + + + + + + + + + + + + + + + + + + + @ @ @ @ @ @ @ @ @ + + + + + + + + + ",
"+ + + + + + + + + + + + + + + + + + + + + + + + + + + + + + + + + + + + + + + + + + @ @ @ @ @ @ @ @ @ @ @ . . . . . . + + + + + ",
"+ + + + + + + + + + + + + @ @ @ + + + + + + + + + + + + @ @ @ @ @ @ @ @ @ @ @ @ @ @ @ @ @ @ . . . . . . . . . . . . . . . . + + ",
". . . . . + + + + + + @ @ @ @ @ @ @ + + + + + + + @ @ @ @ @ . . . . . . @ @ @ @ @ @ . . . . . . . . . . . . . . . . . . . . . . ",
". . . + + + + . . . . . . . . . . @ @ + + + + + @ @ @ . . . . . . . . . . . . . . . . . . . . . . . . . . . . . . . . . . . . . ",
". . . + + + + + . . . . . . . . . . @ @ + + + + . ; $ > . . f.$ $ g.. . . . h.$ ; . . . . . . . .         . . . . . . . . . . . ",
". . . . + + + . . . . . . . . . . . . . . . . . . ; $ > . . f.$ $ g.. . . . h.$ ; . . . .                         . . . . . . . ",
". . . . . . . . . . . . . . . . . . . . . . . . . . . . . . f.$ $ g.. . . . h.$ ; .                 + + + + + + + + +       . . ",
"  . . . . . . . . . . . .       . . . . . . . . . ; $ > . w $ $ $ $ $ 2.. . h.$ f           + + + + + + + + + + + + + + +       ",
"        . . .         + + +         .         . . ; $ > .   i.$ $ j.        k.$ l.      + + + + + + + + + + + + + + + + +       ",
"                  + + + + + + + + . . . .         f $ g     i.$ $ j.        m.$ n.+ + + + + + + + + + + + + + + + + + + + + + + ",
"+ +           + + + + + + + + + + . . . . . .     f $ g     f.$ $ o.+ + + + p.$ t + + + + + + + + + + + + + + + + + + + + + + + ",
"+ + + + + + + + + + + + + . . . . . . . . . . . . ; $ > . . f.$ $ o.+ + + + + + + + + + + + + + + + + + + + + + + + @ @ @ @ @ + ",
"@ @ + + + + + + + + + + . . . . . .         . . . ; $ > . + q.$ $ o.+ + + + r.$ = + + + + + + + + + + + + + + @ @ @ @ @ @ @ @ @ ",
"@ @ @ + + + + + + + + + + + . . . . .         . . ; $ > + + ( $ $ ) + + + + r.$ = + + + + + + . . . . . . . . . . . . . . . . . ",
". @ @ @ @ @ @ @ + + + + + + . . . . . . . . . . . ; $ - + + b.s.t.u.$ p.+ + r.$ = + + . . . + + + + + . . . . . . . . . . . . . ",
". . . . . . . @ @ @ @ . . . . . . . . . . . . . . . . + + + + + + + + + + + + + + . . . + + + + + + + . . . . . . . . . . . . . ",
". . . . . . . . . . . . . . . . . . . .         . . . . . + + + + + + + + + + + . . . . + + + + + . . . . . . . . . . . . . . . ",
". . . . . . . . . . . . . .                       . . . . . . . . . + + + . . . . . . . + + + + . . . . . . . . . . . . . . . . ",
"    . . . . . . . . . . . .                   . . .   . . . . . . . . . . . . . . . . . . . .           . . . . .               ",
"      . . . . . . . . . . . . .                 . .     . . . . . . . . . . . . . . . . .                   . .         + + +   ",
"+ + + + +         . . . . . . . . . .           v.v.v.. . . . . . . . . . . . . . .           + + + + + + + + + + + + + + + + + ",
"+ + + + + + +       . . . . . . .           v.v.v.v.v.  v.v.. . . . . . . . . . .         + + + + + + + + + + + + + + + + + + + ",
"+ + + + + + + + +   v.v.v.v.v.v.v.v.v.v.  v.v.v.v.      v.v.v.v.  . . .                 + + + + + + + + @ @ @ @ @ + + + + + + + ",
"+ + + + + + + + + + + + v.v.v.v.v.v.v.v.+ v.v.+ + +                 .               + + + + + + + + @ @ @ @ @ @ @ @ + + + + + + ",
"+ + + + + + + + + + + + + + + + + + + + + + + + + + + + . . . . . . . . . . . . . + + + + + . . . . . . . . . . . . . + + . . + ",
". . + + + + + + + + + @ @ @ @ @ @ @ + + + + + + + + + + + + . . . . . . . . . . . . + + . . . . . . . . . . . . + + + + + + . . ",
". . . . . + + + + + @ @ @ @ @ @ @ @ @ @ @ @ + + + + + + + + . . . . . . . . . . . . . . . . . . . . . . . . . . . . + + + + + . ",
". . . . . + + + + + + . . . . . . . . . . . . . . + + + + . . . . . . . . . . . . . . . . . . . . . . . . . . . . . . . . . . . ",
". . . . . . + . . . . . . . . . . . . . . . . . . . . . . . . . . . . . . .             . . . . . . . . . . . . . . . . . . . . ",
". . . . . . . . . . . . . . . . . . . . . . . . . . . . . . .                             . . . . .                   . . . . . ",
". . . . . . . . . . . . . . . . . . . . . . . . . . . . . . . .                       . . . .                               . . ",
". . . . . . . . . . . . . . . . . . . . . .         . . . . . . . .     . . .     . . .                   + + + + + + + + + . . "};
