/* XPM */
static char * item_xpm[] = {
"64 64 522 2",
"  	c #DEC87E",
". 	c #F1DA84",
"+ 	c #F8F273",
"@ 	c #FEFA9D",
"# 	c #FDF99C",
"$ 	c #E5E28E",
"% 	c #AA9A61",
"& 	c #B4A365",
"* 	c #EFD883",
"= 	c #EED782",
"- 	c #B1A268",
"; 	c #517276",
"> 	c #73A0A2",
", 	c #577A7E",
"' 	c #A1915C",
") 	c #EDD782",
"! 	c #9E8F5B",
"~ 	c #577F82",
"{ 	c #88C0C0",
"] 	c #8CC3C4",
"^ 	c #82B8B9",
"/ 	c #5A6D68",
"( 	c #E1CC7C",
"_ 	c #C7B46F",
": 	c #2C2C32",
"< 	c #62898C",
"[ 	c #84BBBC",
"} 	c #639596",
"| 	c #324D53",
"1 	c #C6B36E",
"2 	c #394D50",
"3 	c #3F5457",
"4 	c #97B5A7",
"5 	c #B7D2B9",
"6 	c #B6CDB0",
"7 	c #537D7E",
"8 	c #4D7071",
"9 	c #958757",
"0 	c #776C4C",
"a 	c #81754E",
"b 	c #DAC578",
"c 	c #858463",
"d 	c #506A69",
"e 	c #4C6160",
"f 	c #5A8484",
"g 	c #699E9D",
"h 	c #659A9A",
"i 	c #547372",
"j 	c #837B58",
"k 	c #EED783",
"l 	c #E5D07E",
"m 	c #CBB871",
"n 	c #8D8D6C",
"o 	c #51625D",
"p 	c #537C7D",
"q 	c #649999",
"r 	c #86A292",
"s 	c #ADA26E",
"t 	c #B8A86A",
"u 	c #BEB567",
"v 	c #C4BB69",
"w 	c #CEB975",
"x 	c #BDAA6D",
"y 	c #AD9E69",
"z 	c #A59664",
"A 	c #AAA173",
"B 	c #D3BF74",
"C 	c #DBC679",
"D 	c #ECD581",
"E 	c #C0B071",
"F 	c #D9C37B",
"G 	c #D3BE78",
"H 	c #E9E46D",
"I 	c #F6F072",
"J 	c #C6C264",
"K 	c #C3B86C",
"L 	c #BAAA6F",
"M 	c #B4A366",
"N 	c #292931",
"O 	c #232931",
"P 	c #222830",
"Q 	c #101C2E",
"R 	c #C8B573",
"S 	c #C9B573",
"T 	c #D8C27B",
"U 	c #635B42",
"V 	c #161C2E",
"W 	c #281E2F",
"X 	c #3B2031",
"Y 	c #432132",
"Z 	c #E24B58",
"` 	c #E97D66",
" .	c #E87965",
"..	c #E04B57",
"+.	c #AC3C48",
"@.	c #3C2031",
"#.	c #1D1D2E",
"$.	c #49443A",
"%.	c #DBC67D",
"&.	c #D2BE75",
"*.	c #271D2F",
"=.	c #C5444F",
"-.	c #D64954",
";.	c #ED525F",
">.	c #CE516E",
",.	c #CC506D",
"'.	c #DE7171",
").	c #F8816B",
"!.	c #EF505B",
"~.	c #F1515C",
"{.	c #F1525D",
"].	c #CA4551",
"^.	c #772D3B",
"/.	c #171C2E",
"(.	c #E74E5A",
"_.	c #E35163",
":.	c #CE506D",
"<.	c #B35076",
"[.	c #B45076",
"}.	c #B24F76",
"|.	c #F47F6C",
"1.	c #C44F70",
"2.	c #B25077",
"3.	c #E05164",
"4.	c #EF515C",
"5.	c #762C3B",
"6.	c #00172C",
"7.	c #928556",
"8.	c #412C34",
"9.	c #EA505A",
"0.	c #B85075",
"a.	c #BC5073",
"b.	c #A74B6F",
"c.	c #DC4E59",
"d.	c #DE4C58",
"e.	c #B95075",
"f.	c #C35071",
"g.	c #F16862",
"h.	c #E57A64",
"i.	c #2C1D2F",
"j.	c #A39360",
"k.	c #8B7E53",
"l.	c #B16052",
"m.	c #EF555D",
"n.	c #E95160",
"o.	c #EE515D",
"p.	c #E55162",
"q.	c #A93F53",
"r.	c #888A8D",
"s.	c #E7E8E8",
"t.	c #828386",
"u.	c #B54050",
"v.	c #E75161",
"w.	c #EF535C",
"x.	c #F8816A",
"y.	c #F87E6A",
"z.	c #732B3A",
"A.	c #151C2E",
"B.	c #9D8E5D",
"C.	c #D8C37B",
"D.	c #00182B",
"E.	c #FD866D",
"F.	c #FEB685",
"G.	c #F05F60",
"H.	c #EF505C",
"I.	c #EF4D5B",
"J.	c #ED4E5B",
"K.	c #00000F",
"L.	c #FFFFFF",
"M.	c #D2CAC6",
"N.	c #D5BB97",
"O.	c #000026",
"P.	c #F79876",
"Q.	c #F89877",
"R.	c #FDB484",
"S.	c #F9856C",
"T.	c #EF525C",
"U.	c #F0515C",
"V.	c #7B2E3C",
"W.	c #857852",
"X.	c #A69662",
"Y.	c #171D30",
"Z.	c #A3496C",
"`.	c #CC6373",
" +	c #FDB182",
".+	c #F5876F",
"++	c #F26361",
"@+	c #FFBB88",
"#+	c #F99272",
"$+	c #000128",
"%+	c #B49871",
"&+	c #AE9073",
"*+	c #B59973",
"=+	c #000027",
"-+	c #FCAE80",
";+	c #FBA57C",
">+	c #F67867",
",+	c #E9505F",
"'+	c #EC515E",
")+	c #A33946",
"!+	c #95924C",
"~+	c #DDC77D",
"{+	c #D4BF79",
"]+	c #403D37",
"^+	c #4F2434",
"/+	c #DF4C57",
"(+	c #C65070",
"_+	c #B25076",
":+	c #F37769",
"<+	c #FFBA87",
"[+	c #F06964",
"}+	c #EB5660",
"|+	c #F0585E",
"1+	c #AA3B48",
"2+	c #292832",
"3+	c #443D3A",
"4+	c #282832",
"5+	c #AE3C49",
"6+	c #EF565E",
"7+	c #C05172",
"8+	c #DC5166",
"9+	c #B65075",
"0+	c #E25163",
"a+	c #8F8C4A",
"b+	c #C4B070",
"c+	c #74694A",
"d+	c #141C2E",
"e+	c #9C3744",
"f+	c #E65161",
"g+	c #B14C76",
"h+	c #FDB183",
"i+	c #FDB987",
"j+	c #BB5475",
"k+	c #ED515D",
"l+	c #D04753",
"m+	c #D14D54",
"n+	c #DA7560",
"o+	c #F46963",
"p+	c #E45163",
"q+	c #B55076",
"r+	c #A53945",
"s+	c #F1EB70",
"t+	c #D7D265",
"u+	c #3A2031",
"v+	c #E54E59",
"w+	c #F37166",
"x+	c #FFBC88",
"y+	c #BF6678",
"z+	c #F0515B",
"A+	c #EF545D",
"B+	c #F47065",
"C+	c #F9876D",
"D+	c #A53A46",
"E+	c #F7F399",
"F+	c #F7F173",
"G+	c #928F4B",
"H+	c #00192D",
"I+	c #EB5D5E",
"J+	c #F15F60",
"K+	c #F89B78",
"L+	c #FCB284",
"M+	c #BD5875",
"N+	c #C45071",
"O+	c #F9866C",
"P+	c #F77C68",
"Q+	c #C8506F",
"R+	c #BA5074",
"S+	c #C64F6D",
"T+	c #D44854",
"U+	c #F5EF72",
"V+	c #933341",
"W+	c #F7816B",
"X+	c #FDAE80",
"Y+	c #F68D72",
"Z+	c #F0595E",
"`+	c #F77D69",
" @	c #F8806A",
".@	c #F16663",
"+@	c #EF6262",
"@@	c #E9515F",
"#@	c #BC5074",
"$@	c #BB5074",
"%@	c #B95475",
"&@	c #EB515E",
"*@	c #F57366",
"=@	c #F77F6A",
"-@	c #E9505E",
";@	c #D94A55",
">@	c #0D1C2E",
",@	c #745F56",
"'@	c #111A2D",
")@	c #CFBB73",
"!@	c #84784F",
"~@	c #CCC861",
"{@	c #B0AD70",
"]@	c #AFAD70",
"^@	c #E9E591",
"/@	c #001A2D",
"(@	c #F5846E",
"_@	c #FFBE89",
":@	c #FEB182",
"<@	c #F9846B",
"[@	c #F26662",
"}@	c #D95168",
"|@	c #DC7071",
"1@	c #FB876C",
"2@	c #F79174",
"3@	c #FCAC80",
"4@	c #F0505C",
"5@	c #A46C62",
"6@	c #7A665B",
"7@	c #7E675C",
"8@	c #7C655B",
"9@	c #141B2E",
"0@	c #6E6547",
"a@	c #AB9B61",
"b@	c #A29167",
"c@	c #DAAA84",
"d@	c #D68961",
"e@	c #988054",
"f@	c #E1CB7C",
"g@	c #001B2D",
"h@	c #D44853",
"i@	c #B65076",
"j@	c #C84D6E",
"k@	c #E04E63",
"l@	c #F15D5F",
"m@	c #F05B5F",
"n@	c #C45172",
"o@	c #B65177",
"p@	c #924263",
"q@	c #BF645B",
"r@	c #C96B59",
"s@	c #8D3E61",
"t@	c #EB4F5C",
"u@	c #FD9976",
"v@	c #F39A76",
"w@	c #73524E",
"x@	c #93796A",
"y@	c #A2856F",
"z@	c #AF9274",
"A@	c #977B6B",
"B@	c #67554F",
"C@	c #433F37",
"D@	c #726848",
"E@	c #C5BB69",
"F@	c #937B55",
"G@	c #DD8F67",
"H@	c #DF906B",
"I@	c #E0B790",
"J@	c #C48D66",
"K@	c #953542",
"L@	c #E45162",
"M@	c #F6836A",
"N@	c #B4536C",
"O@	c #6E344F",
"P@	c #291E32",
"Q@	c #202130",
"R@	c #43393D",
"S@	c #826C5C",
"T@	c #94796A",
"U@	c #9A7A6A",
"V@	c #9B796A",
"W@	c #311E2E",
"X@	c #44383A",
"Y@	c #A89378",
"Z@	c #EEE0AA",
"`@	c #D3B382",
" #	c #CDAE80",
".#	c #8C7265",
"+#	c #151B2E",
"@#	c #70674A",
"##	c #A29462",
"$#	c #796E4D",
"%#	c #C1B071",
"&#	c #A7975F",
"*#	c #BD8463",
"=#	c #D1B792",
"-#	c #DA9775",
";#	c #CF8C6A",
">#	c #BDA083",
",#	c #8C7B56",
"'#	c #E3CE7D",
")#	c #D5C176",
"!#	c #452232",
"~#	c #6F2B39",
"{#	c #D14A5A",
"]#	c #CE506C",
"^#	c #EE525C",
"/#	c #D36362",
"(#	c #A87B6A",
"_#	c #423A3C",
":#	c #725D55",
"<#	c #8A7163",
"[#	c #BD9F79",
"}#	c #CCAC7F",
"|#	c #CEB083",
"1#	c #E3D4A2",
"2#	c #DBCF9D",
"3#	c #E0D3A1",
"4#	c #EFE1AB",
"5#	c #D5B583",
"6#	c #665749",
"7#	c #222331",
"8#	c #736A4C",
"9#	c #9E9161",
"0#	c #B5A66D",
"a#	c #BEB667",
"b#	c #BBAB70",
"c#	c #9B7C53",
"d#	c #A18160",
"e#	c #9D8264",
"f#	c #A2886A",
"g#	c #AC9679",
"h#	c #908157",
"i#	c #E7D17F",
"j#	c #D0BC73",
"k#	c #4B3F41",
"l#	c #1C1F2F",
"m#	c #AE4B4F",
"n#	c #C06D65",
"o#	c #BFAF8A",
"p#	c #BC9F79",
"q#	c #C3A57C",
"r#	c #D5B483",
"s#	c #967A6B",
"t#	c #987C6C",
"u#	c #E8D6A1",
"v#	c #F1E3AC",
"w#	c #C2B78C",
"x#	c #827C63",
"y#	c #897C54",
"z#	c #BEAB6D",
"A#	c #C3AF70",
"B#	c #DDC77E",
"C#	c #C7C364",
"D#	c #C4B96C",
"E#	c #857951",
"F#	c #A79979",
"G#	c #A39573",
"H#	c #8F8156",
"I#	c #CAB674",
"J#	c #D1BD74",
"K#	c #4B453A",
"L#	c #4E4242",
"M#	c #6C5952",
"N#	c #594A48",
"O#	c #8E785E",
"P#	c #B49979",
"Q#	c #F0E2AC",
"R#	c #E5D09B",
"S#	c #D0B180",
"T#	c #B49971",
"U#	c #73634E",
"V#	c #10192D",
"W#	c #8A765A",
"X#	c #C5B68A",
"Y#	c #CCC093",
"Z#	c #11192D",
"`#	c #000E2B",
" $	c #10182D",
".$	c #716749",
"+$	c #807450",
"@$	c #D3CE64",
"#$	c #D1CC63",
"$$	c #E8E26C",
"%$	c #C5B171",
"&$	c #A19266",
"*$	c #D9CE94",
"=$	c #CEC581",
"-$	c #CCC761",
";$	c #D7C27A",
">$	c #BAA86C",
",$	c #353434",
"'$	c #2D2A34",
")$	c #826A5E",
"!$	c #8E7366",
"~$	c #D6B886",
"{$	c #E4D7A4",
"]$	c #B3A881",
"^$	c #3A3437",
"/$	c #413D37",
"($	c #998A5B",
"_$	c #B7A56A",
":$	c #B5A469",
"<$	c #403C37",
"[$	c #454038",
"}$	c #6C6247",
"|$	c #D2CD64",
"1$	c #EDE76E",
"2$	c #DED868",
"3$	c #DED867",
"4$	c #E1DB69",
"5$	c #EEE86F",
"6$	c #F0D984",
"7$	c #BCA96C",
"8$	c #313033",
"9$	c #181D2E",
"0$	c #06152C",
"a$	c #72624E",
"b$	c #6E5E4C",
"c$	c #000B2A",
"d$	c #131A2D",
"e$	c #524C3D",
"f$	c #BCAA6D",
"g$	c #D8D266",
"h$	c #F7F172",
"i$	c #8B7E55",
"j$	c #8A7D54",
"k$	c #BFAC6E",
"l$	c #CEBA72",
"m$	c #CCB871",
"n$	c #D8C477",
"o$	c #E6E06B",
"p$	c #E7E16C",
"q$	c #DFDA69",
"r$	c #E8D27F",
"s$	c #CCB972",
"t$	c #D6C176",
"u$	c #F4EE71",
"v$	c #CEBB73",
"w$	c #B29678",
"      . . . . .           + + + + + + +                     . . . . .     . .                 + + + + + + + + + + + + + + + + + ",
"                      + + + + + + + + + + + + +                                         + + + + + + + + + + + + + + + + + +     ",
"+           . . . + + + + + + + + + + + + + + + + + + +                                 + + + + + + + + + + + + + + + + + + + + ",
"+ + + . . . . . . . . + + + + + + + + @ @ @ @ @ + + + + + + + +                   + + + + + + + + + + + + @ @ @ @ @ @ @ + + + + ",
"+ + . . . . . . . . . + + + + + @ @ @ @ @ @ @ @ @ + + + + + + + + + + + + + + + + + + + + + + + + + + @ @ @ @ @ @ @ @ @ @ @ + + ",
". . . . . .         . . + + + . . . . . . . . . @ + + + + + + + + + + + + + + + + + + + + + + + + + @ @ # $ % % & * . . . . + . ",
". . . .               . . . . . . . . . . . . . . . . + + + + + + + + + + + + + + + + + + + + + + + . = - ; > > , ' . . . . . . ",
"  . . . . .           . . . . . . . . . . . . . . . . . . . + + + + + + + + + + + + + + + + + + . . ) ! ~ { ] ] ^ / ( . . . .   ",
"    . .           . . . . . . . . . . . . . . . . . . . . . . + + + + + + + + + + + + + + . . . . . _ : < ] ] [ } | 1 . . . .   ",
". .             . . . . . . . . . . . . . . . . . . . . . . . . + + + . . . + + + + + . . + + + . . % 2 3 4 5 6 7 8 9 . . . . . ",
".               . .     0 a a a . . . . . . . . . . . . . + + + + + . . . . . . . . . . + + + . . . b c d e f g h i j k . . . . ",
"                . .   0 0 0 a a a . . . . . . . . . . . . . + + + + + + . . . . . . . . . . . . . . l m n o p q r s t * . .     ",
"  + +             . a 0 0 u v a a a . . . . . . . . . . . . . . . . . . . . . . . . . . . . . . .     w x y z A B C D . .       ",
"+ + + + + +       0 a v v v v E a a . . . . . . .       . . . . . . . . . . . . . . . . . .             F F G H I + + + + + + + ",
"+ + + + + + +       u u v E E E a a                             . . . . . . . . . . .                 + + + + + + + + + + + + + ",
"+ + + + + + + + + + J J K K L 0 0                                       . . .                   + + + + + + + + + + + + + + + + ",
"+ + + + + + + + + + + + + + +               + + + + + + +                             + + + + + + + + + + + + + + + + + + + + + ",
"+ + + + + + + + + + + + + + + + + + + + + + + + + + + + + + + + + +       . . . . . . + + + + + + + + + + + + + + + + @ @ @ @ @ ",
"@ @ @ + + + + + + + + + + + + + + + + + + + + + + + + + + + + + + + + . . . . . . . . . . + + + + + + + + + + + @ @ @ @ @ @ @ @ ",
". @ @ + + + + + + + + + + + + + + + + + + + + @ @ @ @ @ + + + + + + . . . . . . . . . . . . . + + . . . . . . . . @ @ @ . . . . ",
". . . . . . + + + + + + + + + + + + + + + @ @ @ @ @ @ @ @ @ + + . . . . . . . . . . . . . . . . . . . . . . . . . . . . . . . . ",
". . . . . . . . . + + + + + + + + + + @ @ @ @ @ . . . . . . . . C M N N O P P O Q R S T     . . . . . . . . . . . . . . . . . . ",
". . . . . . + + + + . . . . + + + + @ @ @ @ . . . . . . . . b U V W X Y Z `  ...+.@.#.$.%.    . . . . . . . . . . . . . . . . . ",
". . . . . + + + + . . + + + + . . . . . . . . . . . . . . &.V *.=.-.;.>.,.'.).!.~.{.].^.V % . . . . . . . . . . . . . . . . . . ",
". . . . . . . . . . . . + + . . . . . . . . . . . . . . . /.Y (._.:.<.[.[.}.|.1.2.3.4.{.5.6.V ( .     . . . . . . . . . . . . . ",
". . . . . . . . . . . . . . . . . . . . . . . . . . . . 7.8.9.4.,.0.a.[.[.b.c.d.e.f.4.4.g.h.i.j.        .       . . . . . . . . ",
". . . . . . . . . . . . . . . . . . . . . . . . . . . . k.l.m.4.n.n.o.p.q.r.s.t.u.v.4.w.x.y.z.A.B.  + + + +           . . . . . ",
"    + +                 . . . . . . . . . . . . . . . C.D.E.F.G.4.H.I.J.K.L.M.N.O.P.Q.R.S.T.U.V.W.+ + + + + +             . .   ",
"  + + + +                   . . . . . . . . . .     X.Y.Z.`. +.+++S.@+#+$+%+&+*+=+-+;+>+,+3.'+)+!++ + + + + + + + +             ",
"+ + + + + + + + + +           . . . . . . . . ~+{+]+^+/+(+_+:+<+[+}+G.|+1+2+3+4+5+6+7+8+9+[.0+)+a++ + + + + + + + + + + +       ",
"+ + + + + + + + + + + +           . . . .   b+c+d+e+U.4.f+g+h+i+j+2.k+4.U.l+m+n+o+p+[.<.[.[.q+r+V s++ + + + + + + + + + + + + + ",
"+ + + + + + + + + + + + + +             + t+/.u+v+U.4.4.4.w+x+y+<.,.4.4.z+U.A+B+C+,+0.[.[.[.:.D+V E+@ @ @ @ @ + + + + + + + + + ",
"+ + + + + + + + + + + + + + + + + + + + F+G+H+I+J+H.4.H.H.K+L+M+3.4.o._.[.N+o.4.O+P+Q+<.R+S+T+H+V E+@ @ @ . . . . . . + + + + + ",
"+ + + + + + + + + + + + + @ @ @ + + + + U+A.V+W+X+Y+Z+`+ @.@+@@@U.#@$@[.%@<.&@4.*@=@4.n.-@;@>@,@'@)@. . . . !@!@!@!@!@. . . + + ",
". . . . . + + + + U+~@{@]@^@@ @ @ @ + + U+/@{.|+(@_@:@<@[@H.B+4.}@[.[.|@1@<.&@4.2@3@U.4@5@6@7@8@9@0@. . . !@!@!@!@!@!@!@. . . . ",
". . . + + + + . k a@b@c@d@e@f@. . @ @ + U+g@h@i@<.j@k@H.4.l@S.m@n@o@p@q@r@s@t@4@u@v@w@x@y@z@A@B@C@D@!@. !@!@!@E@E@E@!@!@. . . . ",
". . . + + + + + _ F@G@H@I@J@% ) . . @ @ U+V K@n.9+[.[.L@4.4.M@N@O@P@Q@R@S@T@U@V@W@X@Y@Z@`@ #.#+#@###    $#!@E@E@E@E@%#!@. . . . ",
". . . . + + + . &#*#=#-#;#>#,#'#. . . . )#V !#~#{#]#9+$@^#/#(#_#:#<#.#A@[#}#|#1#2#3#4#4#5#6#7#8#9#0#    a#a#a#a#b#%#%#. . . . . ",
". . . . . . . . )@c#d#e#f#g#h#i#. . . . j#V k#l#/@D+m#n#o#p#q#r#s#t#t#t#[#5#5#u#4#v#v#w#x#A.y#z#A#B#+ + + C#D#D#D#D#+       . . ",
"  . . . . . . . . b E#F#G#H#I#  . . . . J#K#L#A@M#N#O#P#Q#R#S#T#U#V#V#V#W#T#T#X#Y#Z#`# $.$+$@$#$$$+ + + + + + + + + + + +       ",
"        . . .     %$&$*$=$-$;$      .   %$>$,$'$)$!$5#~${$]$^$/$($_$_$:$<$[$[$[$[$}$_$_$|$|$t+I + + + + + + + + + + + + +       ",
"                  1$2$3$4$5$+ + + . . . 6$7$_$8$9$0$a$b$c$d$e$>$x f$f$f$x x x x x @$|$|$|$g$h$+ + + + + + + + + + + + + + + + + ",
"+ +           + + + + + + + + + + . . . . i#m z#z#y#i$j$j$k$l$m$n$+ + + o$p$@$#$#$#$#$q$+ + + + + + + + + + + + + + + + + + + + ",
"+ + + + + + + + + + + + + . . . . . . . . . r$s$m$s$s$s$s$m$t$u$+ + + + + + + + + + + + + + + + + + + + + + + + + + @ @ @ @ @ + ",
"@ @ + + + + + + + + + + . . . . . .         . = ) v$)@)@)@U++ + + + + + + + + + + + + + + + + + + + + + + + + @ @ @ @ @ @ @ @ @ ",
"@ @ @ + + + + + + + + + + + . . . . .         . . . . . + + + + + + + + + + + + + + + + + + + . . . . . . . . . . . . . . . . . ",
". @ @ @ @ @ @ @ + + + + + + . . . . . . . . . . . . . + + + + + + + + + + + + + + + + . . . + + + + + . . . . . . . . . . . . . ",
". . . . . . . @ @ @ @ . . . . . . . . . . . . . . . . + + + + + + + + + + + + + + . . . + + + + + + + . . . . . . . . . . . . . ",
". . . . . . . . . . . . . . . . . . . .         . . . . . + + + + + + + + + + + . . . . + + + + + . . . . . . . . . . . . . . . ",
". . . . . . . . . . . . . .                       . . . . . . . . . + + + . . . . . . . + + + + . . . . . . . . . . . . . . . . ",
"    . . . . . . . . . . . .                   . . .   . . . . . . . . . . . . . . . . . . . .           . . . . .               ",
"      . . . . . . . . . . . . .                 . .     . . . . . . . . . . . . . . . . .                   . .         + + +   ",
"+ + + + +         . . . . . . . . . .           w$w$w$. . . . . . . . . . . . . . .           + + + + + + + + + + + + + + + + + ",
"+ + + + + + +       . . . . . . .           w$w$w$w$w$  w$w$. . . . . . . . . . .         + + + + + + + + + + + + + + + + + + + ",
"+ + + + + + + + +   w$w$w$w$w$w$w$w$w$w$  w$w$w$w$      w$w$w$w$  . . .                 + + + + + + + + @ @ @ @ @ + + + + + + + ",
"+ + + + + + + + + + + + w$w$w$w$w$w$w$w$+ w$w$+ + +                 .               + + + + + + + + @ @ @ @ @ @ @ @ + + + + + + ",
"+ + + + + + + + + + + + + + + + + + + + + + + + + + + + . . . . . . . . . . . . . + + + + + . . . . . . . . . . . . . + + . . + ",
". . + + + + + + + + + @ @ @ @ @ @ @ + + + + + + + + + + + + . . . . . . . . . . . . + + . . . . . . . . . . . . + + + + + + . . ",
". . . . . + + + + + @ @ @ @ @ @ @ @ @ @ @ @ + + + + + + + + . . . . . . . . . . . . . . . . . . . . . . . . . . . . + + + + + . ",
". . . . . + + + + + + . . . . . . . . . . . . . . + + + + . . . . . . . . . . . . . . . . . . . . . . . . . . . . . . . . . . . ",
". . . . . . + . . . . . . . . . . . . . . . . . . . . . . . . . . . . . . .             . . . . . . . . . . . . . . . . . . . . ",
". . . . . . . . . . . . . . . . . . . . . . . . . . . . . . .                             . . . . .                   . . . . . ",
". . . . . . . . . . . . . . . . . . . . . . . . . . . . . . . .                       . . . .                               . . ",
". . . . . . . . . . . . . . . . . . . . . .         . . . . . . . .     . . .     . . .                   + + + + + + + + + . . "};
