/* XPM */
static char * wall_xpm[] = {
"64 64 14 1",
" 	c #DEC87E",
".	c #F1DA84",
"+	c #F8F273",
"@	c #FEFA9D",
"#	c #161C2E",
"$	c #8CC3C4",
"%	c #669D9D",
"&	c #506A69",
"*	c #D0DEB5",
"=	c #BCAA6D",
"-	c #CCB972",
";	c #D2CD64",
">	c #D7D486",
",	c #B29678",
"   .....     +++++++          .....  ..        +++++++++++++++++",
"           +++++++++++++                    ++++++++++++++++++  ",
"+     ...+++++++++++++++++++                ++++++++++++++++++++",
"+++........++++++++@@@@@++++++++         ++++++++++++@@@@@@@++++",
"++.........+++++@@@@@@@@@++++++++++++++++++++++++++@@@@@@@@@@@++",
"......    ..+++.........@+++++++++++++++++++++++++@@@@........+.",
"....       ................+++++++++++++++++++++++..............",
" .....     ...................++++++++++++++++++............... ",
"  ..     ......................++++++++++++++.................. ",
"..      ........................+++...+++++..+++................",
".       ..   ................+++++..........+++.................",
"        ..    ................++++++..........................  ",
" ++      ..   ...................................       .....   ",
"++++++    ...............   ..................         +++++++++",
"+++++++     ......              ...........        +++++++++++++",
"++++++++++++++                   ##########     ++++++++++++++++",
"+++++++++++++++       ++++++#################+++++++++++++++++++",
"++++++++++++++++++++++++++#########$$$$$$$####+++++++++++++@@@@@",
"@@@++++++++++++++++++++#######$$$$$$$$$$$$$####+++++++++@@@@@@@@",
".@@+++++++++++++++++++#####$$$$$$$$$$$$$$$$%###++........@@@....",
"......+++++++++++++++###%$$$$$$$$$$$$$$$$$$%%###................",
".........++++++++++@###%%$$$$$$$$$$$$$$$$$%%%###................",
"......++++....++++@###%%%%$$$$$$$$$$$$$%%%%%%####...............",
".....++++..++++....##%%%%%$$$$$$$$$$$%%%%%%%#######.............",
"............++....###%%%%%%%%%%$$$$$$$$$$%%##%%%###.............",
"..................###$$$$$$$$$$$$$$$$$$$$$$$$$%%%###.   ........",
".................####$$$$$$$$$$$$$$$$$$$$$$$$$$%%%##++     .....",
"  ++        .....##&&#$$$$$$$$$$$$$$$$$$$$***$$%%%###++      .. ",
" ++++         ..##&&&#%%%$$$$$$$$$$$$$******$$$%%%###+++++      ",
"++++++++++    =-##&&&&%%%%%$$$$$$$$********$$$$%%####++++++++   ",
"++++++++++++ ==##&&&&&#$$$$$$$$$*********$$$$$%######+++++++++++",
"+++++++++++++;=##&&&&&##***$$$$$$$$$$***$$$$**###&&##@@+++++++++",
"++++++++++++;;;#&&&&&&&##****$$$$$$$***$$***###&&&&###.....+++++",
"++++++++++++;>>#&&&&&&&%#**************$$$%%&&#&&&&&##........++",
".....++++++@>>>#&&&&&&%%%%***********####%%%%&#&&&&&##..........",
"...++++.....---##&&&&%%%%%%%********##%%%%%%%&&%&&&&##-.........",
"...+++++....---##&&&&%%%%%%%%***%%%%%%%%%%%&&&&%%&&&##--........",
"....+++.....---###&&%%%%%%%%%***%%%%%%%%%%%%%%&%%&&&##== .......",
".............---####%%%%%%%%%%*%%%%%%%%%%%%%%%&%&&&&##;++++   ..",
" ............ ==-###%%%%%%%%%%*%%%%%%%%%%%%%%%&&&&&##;;++++++   ",
"    ...    +++====-##%%%%%%%%%*%%%%%%%%%%%%%%&&&&&##;;;++++++   ",
"         ++++++;;----%%%%%%%%#*%%%%%%%%%%%%%%&&&&;;;;;++++++++++",
"++     ++++++++++-----###%%%###%%%%%%%%%%%%%&&;;;;;;;+++++++++++",
"+++++++++++++......----#########%%%%%%%%%%&&&;;;;;;;++++++@@@@@+",
"@@++++++++++......  ==---#########%%%%%%%%;;;;;;;;+++++@@@@@@@@@",
"@@@+++++++++++.....    -----########%%%;;;+++;;-................",
".@@@@@@@++++++..........---;;;;;;;;;;;;;;;+...+++++.............",
".......@@@@...............-;;;;;;;;;;;;;;--.+++++++.............",
"....................    .....+++++;;;;;;....+++++...............",
"..............           .........+++.......++++................",
"  ............         ... ....................     .....       ",
"   .............        ..  .................         ..    +++ ",
"+++++    ..........     ,,,...............     +++++++++++++++++",
"+++++++   .......     ,,,,, ,,...........    +++++++++++++++++++",
"+++++++++ ,,,,,,,,,, ,,,,   ,,,, ...        ++++++++@@@@@+++++++",
"++++++++++++,,,,,,,,+,,+++        .       ++++++++@@@@@@@@++++++",
"++++++++++++++++++++++++++++.............+++++.............++..+",
"..+++++++++@@@@@@@++++++++++++............++............++++++..",
".....+++++@@@@@@@@@@@@++++++++............................+++++.",
".....++++++..............++++...................................",
"......+...............................      ....................",
"...............................              .....         .....",
"................................           ....               ..",
"......................    ........  ...  ...         +++++++++.."};
